<svg height="512pt" fill="lightgray" viewBox="0 0 512 512" width="512pt" xmlns="http://www.w3.org/2000/svg"><path d="m512 262c0-16.542969-13.457031-30-30-30h-16.941406c-6.410156-27.011719-24.308594-50.222656-40.453125-58.941406-3.277344-30.085938-7.8125-54.484375-12.765625-78.652344-.003906-.019531-.007813-.039062-.011719-.058594-1.15625-5.640625-2.335937-11.269531-3.527344-16.953125l-.410156-1.964843v-15.5c4.980469-.570313 8.851563-4.796876 8.851563-9.929688v-20c0-16.542969-13.457032-30-30-30h-40c-16.539063 0-30 13.457031-30 30v20c0 5.132812 3.871093 9.359375 8.855468 9.929688v15.5l-.410156 1.964843c-1.191406 5.679688-2.367188 11.300781-3.523438 16.933594-.007812.035156-.011718.066406-.019531.097656-4.949219 24.160157-9.484375 48.554688-12.761719 78.628907-16.140624 8.722656-34.042968 31.933593-40.453124 58.945312h-24.859376c-6.410156-27.011719-24.308593-50.222656-40.449218-58.945312-3.277344-30.078126-7.816406-54.476563-12.765625-78.640626-.007813-.027343-.011719-.050781-.015625-.078124-1.15625-5.625-2.328125-11.234376-3.515625-16.90625l-.421875-2v-15.5c4.984375-.570313 8.855468-4.796876 8.855468-9.929688v-20c0-16.542969-13.460937-30-30-30h-40c-16.542968 0-30 13.457031-30 30v20c0 5.132812 3.871094 9.359375 8.851563 9.929688v15.5l-.410156 1.964843c-1.191407 5.679688-2.367188 11.300781-3.523438 16.933594-.003906.035156-.011719.066406-.019531.097656-4.949219 24.160157-9.484375 48.558594-12.761719 78.632813-16.144531 8.71875-34.042969 31.929687-40.453125 58.941406h-16.941406c-16.542969 0-30 13.457031-30 30v90c0 7.675781 2.902344 14.6875 7.664062 20-4.761718 5.308594-7.664062 12.320312-7.664062 20v90c0 16.539062 13.457031 29.996094 30 29.996094h452c16.542969 0 30-13.457032 30-29.996094v-90c0-7.679688-2.902344-14.691406-7.664062-20 4.761718-5.3125 7.664062-12.324219 7.664062-20zm-167.238281-180.507812.621093-2.976563c.144532-.675781.214844-1.359375.214844-2.050781v-16.464844h42.292969v16.464844c0 .691406.074219 1.375.214844 2.050781l.621093 2.976563c.34375 1.640624.6875 3.269531 1.027344 4.898437h-46.019531c.339844-1.628906.683594-3.261719 1.027344-4.898437zm-8.019531-51.492188c0-5.515625 4.488281-10 10-10h40c5.515624 0 10 4.484375 10 10v10h-60zm-15.695313 159.496094c3.898437-1.148438 6.710937-4.542969 7.117187-8.585938 2.878907-28.503906 6.945313-51.863281 11.464844-74.519531h54.230469c4.519531 22.65625 8.585937 46.015625 11.464844 74.519531.40625 4.042969 3.21875 7.4375 7.117187 8.585938 9.660156 2.851562 25.242188 20.84375 31.878906 42.503906h-155.15625c6.640626-21.660156 22.222657-39.652344 31.882813-42.503906zm-197.773437-108.003906.625-2.976563c.140624-.675781.210937-1.359375.210937-2.050781v-16.464844h42.296875v16.464844c0 .691406.070312 1.375.210938 2.050781l.632812 3.015625c.339844 1.625.675781 3.242188 1.015625 4.859375h-46.015625c.339844-1.628906.679688-3.257813 1.023438-4.898437zm-8.015626-51.492188c0-5.515625 4.484376-10 10-10h40c5.511719 0 10 4.484375 10 10v10h-60zm-95.257812 232c0-5.515625 4.484375-10 10-10h25.21875.015625.019531 45c5.519532 0 10-4.476562 10-10s-4.480468-10-10-10h-32.574218c6.636718-21.660156 22.21875-39.652344 31.878906-42.503906 3.894531-1.148438 6.710937-4.542969 7.117187-8.585938 2.878907-28.503906 6.945313-51.863281 11.464844-74.519531h54.226563c4.523437 22.65625 8.585937 46.015625 11.46875 74.519531.40625 4.042969 3.21875 7.4375 7.117187 8.585938 9.660156 2.851562 25.242187 20.84375 31.878906 42.503906h-32.578125c-5.523437 0-10 4.476562-10 10s4.476563 10 10 10h45.003906.019532.015625 41.410156.015625.019531 180.003907.023437.011719 25.21875c5.515625 0 10 4.484375 10 10v90c0 5.511719-4.484375 10-10 10h-451.996094c-5.515625 0-10-4.488281-10-10zm472 220c0 5.511719-4.484375 10-10 10h-452c-5.515625 0-10-4.488281-10-10v-90c0-5.515625 4.484375-10 10-10h452c5.515625 0 10 4.484375 10 10zm0 0"/><path d="m462 292.003906c5.519531 0 10-4.480468 10-10.003906s-4.480469-10-10-10c-5.523438 0-10 4.476562-10 10v.007812c0 5.523438 4.476562 9.996094 10 9.996094zm0 0"/><path d="m462 341.996094c5.519531 0 10-4.480469 10-10.003906 0-5.523438-4.480469-10-10-10-5.523438 0-10 4.476562-10 10v.003906c0 5.523437 4.476562 10 10 10zm0 0"/><path d="m50 292.003906c5.523438 0 10-4.480468 10-10.003906s-4.476562-10-10-10c-5.519531 0-10 4.476562-10 10v.007812c0 5.523438 4.480469 9.996094 10 9.996094zm0 0"/><path d="m50 341.996094c5.523438 0 10-4.480469 10-10.003906 0-5.523438-4.476562-10-10-10-5.519531 0-10 4.476562-10 10v.003906c0 5.523437 4.480469 10 10 10zm0 0"/><path d="m462 402c-5.523438 0-10 4.476562-10 10v.007812c0 5.523438 4.476562 9.996094 10 9.996094 5.519531 0 10-4.480468 10-10.003906s-4.480469-10-10-10zm0 0"/><path d="m462 451.992188c-5.523438 0-10 4.476562-10 9.996093v.007813c0 5.523437 4.476562 10 10 10 5.519531 0 10-4.484375 10-10.007813 0-5.519531-4.480469-9.996093-10-9.996093zm0 0"/><path d="m50 402c-5.519531 0-10 4.476562-10 10v.007812c0 5.523438 4.480469 9.996094 10 9.996094 5.523438 0 10-4.480468 10-10.003906s-4.476562-10-10-10zm0 0"/><path d="m50 451.992188c-5.519531 0-10 4.476562-10 9.996093v.007813c0 5.523437 4.480469 10 10 10 5.523438 0 10-4.484375 10-10.007813 0-5.519531-4.476562-9.996093-10-9.996093zm0 0"/><path d="m317 451.992188h-.003906c-5.523438 0-10 4.476562-10 9.996093 0 5.523438 4.484375 10 10.003906 10 5.523438 0 10-4.476562 10-10 0-5.519531-4.476562-9.996093-10-9.996093zm0 0"/><path d="m416.996094 451.992188h-54.996094c-5.523438 0-10 4.476562-10 9.996093 0 5.523438 4.476562 10 10 10h54.996094c5.519531 0 10-4.476562 10-10 0-5.519531-4.480469-9.996093-10-9.996093zm0 0"/><path d="m145.257812 252c5.519532 0 10-4.476562 10-10s-4.480468-10-10-10h-.007812c-5.523438 0-9.996094 4.476562-9.996094 10s4.480469 10 10.003906 10zm0 0"/></svg>